<svg width="24" height="25" viewBox="0 0 24 25" fill="none" xmlns="http://www.w3.org/2000/svg">
<circle cx="12" cy="12.4883" r="11" stroke="white" stroke-width="2"/>
<path fill-rule="evenodd" clip-rule="evenodd" d="M19.2004 9.09166C18.7171 9.28898 18.2095 9.41725 17.6921 9.47284C18.2342 9.17287 18.6506 8.69824 18.8466 8.13235C18.3246 8.41756 17.7617 8.61608 17.1789 8.72051C16.7003 8.24981 16.0175 7.95508 15.2623 7.95508C13.812 7.95508 12.6361 9.04057 12.6361 10.3784C12.6361 10.5684 12.6595 10.7535 12.7043 10.9308C10.5217 10.8299 8.58636 9.86495 7.29157 8.39871C7.05995 8.7609 6.93629 9.18436 6.9357 9.61737C6.9357 10.4579 7.3994 11.1998 8.10433 11.6342C7.69097 11.6235 7.28493 11.5201 6.91481 11.3312L6.91439 11.3618C6.91439 12.5354 7.81963 13.5148 9.02108 13.7375C8.63281 13.8356 8.22887 13.8497 7.83497 13.779C8.16954 14.7422 9.13914 15.4435 10.2882 15.4627C9.38932 16.1129 8.25691 16.5006 7.02648 16.5006C6.81466 16.5006 6.60539 16.4884 6.40039 16.4661C7.56263 17.1542 8.94266 17.5551 10.4258 17.5551C15.2564 17.5551 17.8975 13.862 17.8975 10.6596C17.8975 10.5548 17.8954 10.4496 17.8903 10.3453C18.3964 10.0107 18.8401 9.58619 19.2004 9.09166Z" fill="white"/>
</svg>
